<svg width="88" height="20" viewBox="0 0 88 20" fill="none" xmlns="http://www.w3.org/2000/svg">
<path d="M60.16 6.176C60.8107 6.35733 61.312 6.688 61.664 7.168C62.0267 7.648 62.208 8.23467 62.208 8.928C62.208 9.888 61.8613 10.64 61.168 11.184C60.4853 11.728 59.5413 12 58.336 12H54.208C53.8987 12 53.6533 11.9147 53.472 11.744C53.3013 11.5733 53.216 11.3333 53.216 11.024V1.696C53.216 1.38667 53.3013 1.14667 53.472 0.976C53.6533 0.805333 53.8987 0.719999 54.208 0.719999H58.176C59.3493 0.719999 60.2667 0.981333 60.928 1.504C61.6 2.016 61.936 2.736 61.936 3.664C61.936 4.26133 61.776 4.77867 61.456 5.216C61.1467 5.65333 60.7147 5.97333 60.16 6.176ZM55.232 5.472H57.84C59.2587 5.472 59.968 4.944 59.968 3.888C59.968 3.35467 59.792 2.96 59.44 2.704C59.088 2.448 58.5547 2.32 57.84 2.32H55.232V5.472ZM58.112 10.4C58.8587 10.4 59.4027 10.2667 59.744 10C60.0853 9.73333 60.256 9.31733 60.256 8.752C60.256 8.18667 60.08 7.76533 59.728 7.488C59.3867 7.21067 58.848 7.072 58.112 7.072H55.232V10.4H58.112ZM67.3539 3.984C68.4419 3.984 69.2472 4.256 69.7699 4.8C70.3032 5.33333 70.5699 6.14933 70.5699 7.248V11.152C70.5699 11.44 70.4845 11.6693 70.3139 11.84C70.1432 12 69.9085 12.08 69.6099 12.08C69.3325 12.08 69.1032 11.9947 68.9219 11.824C68.7512 11.6533 68.6659 11.4293 68.6659 11.152V10.8C68.4845 11.216 68.1965 11.5413 67.8019 11.776C67.4179 12.0107 66.9699 12.128 66.4579 12.128C65.9352 12.128 65.4605 12.0213 65.0339 11.808C64.6072 11.5947 64.2712 11.3013 64.0259 10.928C63.7805 10.5547 63.6579 10.1387 63.6579 9.68C63.6579 9.104 63.8019 8.65067 64.0899 8.32C64.3885 7.98933 64.8685 7.74933 65.5299 7.6C66.1912 7.45067 67.1032 7.376 68.2659 7.376H68.6659V7.008C68.6659 6.48533 68.5539 6.10667 68.3299 5.872C68.1059 5.62667 67.7432 5.504 67.2419 5.504C66.9325 5.504 66.6179 5.552 66.2979 5.648C65.9779 5.73333 65.5992 5.86133 65.1619 6.032C64.8845 6.17067 64.6819 6.24 64.5539 6.24C64.3619 6.24 64.2019 6.17067 64.0739 6.032C63.9565 5.89333 63.8979 5.712 63.8979 5.488C63.8979 5.30667 63.9405 5.152 64.0259 5.024C64.1219 4.88533 64.2765 4.75733 64.4899 4.64C64.8632 4.43733 65.3059 4.27733 65.8179 4.16C66.3405 4.04267 66.8525 3.984 67.3539 3.984ZM66.8579 10.688C67.3912 10.688 67.8232 10.512 68.1539 10.16C68.4952 9.79733 68.6659 9.33333 68.6659 8.768V8.432H68.3779C67.6632 8.432 67.1085 8.464 66.7139 8.528C66.3192 8.592 66.0365 8.704 65.8659 8.864C65.6952 9.024 65.6099 9.24267 65.6099 9.52C65.6099 9.86133 65.7272 10.144 65.9619 10.368C66.2072 10.5813 66.5059 10.688 66.8579 10.688ZM76.0745 12.128C75.2958 12.128 74.6078 11.9627 74.0105 11.632C73.4238 11.3013 72.9705 10.832 72.6505 10.224C72.3305 9.616 72.1705 8.90667 72.1705 8.096C72.1705 7.28533 72.3358 6.57067 72.6665 5.952C73.0078 5.32267 73.4825 4.83733 74.0905 4.496C74.6985 4.15467 75.3972 3.984 76.1865 3.984C76.6025 3.984 77.0185 4.04267 77.4345 4.16C77.8612 4.27733 78.2345 4.43733 78.5545 4.64C78.8958 4.864 79.0665 5.14667 79.0665 5.488C79.0665 5.72267 79.0078 5.91467 78.8905 6.064C78.7838 6.20267 78.6398 6.272 78.4585 6.272C78.3412 6.272 78.2185 6.24533 78.0905 6.192C77.9625 6.13867 77.8345 6.07467 77.7065 6C77.4718 5.86133 77.2478 5.75467 77.0345 5.68C76.8212 5.59467 76.5758 5.552 76.2985 5.552C75.6372 5.552 75.1252 5.77067 74.7625 6.208C74.4105 6.63467 74.2345 7.25333 74.2345 8.064C74.2345 8.864 74.4105 9.48267 74.7625 9.92C75.1252 10.3467 75.6372 10.56 76.2985 10.56C76.5652 10.56 76.7998 10.5227 77.0025 10.448C77.2158 10.3627 77.4505 10.2507 77.7065 10.112C77.8665 10.016 78.0052 9.94667 78.1225 9.904C78.2398 9.85067 78.3572 9.824 78.4745 9.824C78.6452 9.824 78.7892 9.89867 78.9065 10.048C79.0238 10.1973 79.0825 10.384 79.0825 10.608C79.0825 10.7893 79.0398 10.9493 78.9545 11.088C78.8798 11.216 78.7518 11.3333 78.5705 11.44C78.2398 11.6533 77.8558 11.824 77.4185 11.952C76.9812 12.0693 76.5332 12.128 76.0745 12.128ZM87.375 10.448C87.5883 10.6507 87.695 10.88 87.695 11.136C87.695 11.3813 87.6043 11.6 87.423 11.792C87.2523 11.984 87.0497 12.08 86.815 12.08C86.5803 12.08 86.3617 11.984 86.159 11.792L82.415 8.4V11.136C82.415 11.4453 82.319 11.68 82.127 11.84C81.935 12 81.695 12.08 81.407 12.08C81.119 12.08 80.879 12 80.687 11.84C80.5057 11.68 80.415 11.4453 80.415 11.136V1.584C80.415 1.27467 80.5057 1.04 80.687 0.879999C80.879 0.719999 81.119 0.639999 81.407 0.639999C81.695 0.639999 81.935 0.719999 82.127 0.879999C82.319 1.04 82.415 1.27467 82.415 1.584V7.6L85.839 4.32C86.031 4.128 86.2497 4.032 86.495 4.032C86.7403 4.032 86.9537 4.12267 87.135 4.304C87.3163 4.48533 87.407 4.69867 87.407 4.944C87.407 5.18933 87.3057 5.41333 87.103 5.616L84.591 7.952L87.375 10.448Z" fill="#545454"/>
<line x1="1" y1="19" x2="87" y2="19" stroke="#545454" stroke-width="2" stroke-linecap="round"/>
<line x1="1" y1="18.5858" x2="13.5858" y2="6" stroke="#545454" stroke-width="2" stroke-linecap="round"/>
</svg>
